Barcelona vs Chelsea 2-2 2nd half. 24-4-2012


Screeens >> http://bayimg.com/pAoKEAaDDpAoKEAaDD


Audio: MPEG Audio 44100Hz stereo 112kbps [Audio]
Video: MPEG2 Video 720x576 (16:9) 25.00fps 10000kbps [Video]




General
Complete name                    : C:JSC sports +8 Barcelona vs Chelsea (L) 2nd half.mpg
Format                           : MPEG-PS
File size                        : 2.13 GiB
Duration                         : 50mn 22s
Overall bit rate                 : 6 048 Kbps

Video
ID                               : 224 (0xE0)
Format                           : MPEG Video
Format version                   : Version 2
Format profile                   : Main@Main
Format settings, BVOP            : Yes
Format settings, Matrix          : Default
Duration                         : 50mn 22s
Bit rate mode                    : Variable
Bit rate                         : 5 552 Kbps
Nominal bit rate                 : 10 000 Kbps
Width                            : 720 pixels
Height                           : 576 pixels
Display aspect ratio             : 16:9
Frame rate                       : 25.000 fps
Standard                         : PAL
Resolution                       : 8 bits
Colorimetry                      : 4:2:0
Scan type                        : Interlaced
Scan order                       : Top Field First
Bits/(Pixel*Frame)               : 0.535
Stream size                      : 1.95 GiB (92%)

Audio
ID                               : 192 (0xC0)
Format                           : MPEG Audio
Format version                   : Version 1
Format profile                   : Layer 2
Duration                         : 50mn 22s
Bit rate mode                    : Constant
Bit rate                         : 256 Kbps
Channel(s)                       : 2 channels
Sampling rate                    : 48.0 KHz
Video delay                      : -394ms
Stream size                      : 92.2 MiB (4%)

